<svg viewBox="0 0 48 48" width="48" height="48" fill="none" xmlns="http://www.w3.org/2000/svg">
  <!-- Верхняя стрелка (влево) -->
  <path d="M42,13H10.82l2.6-2.58A2,2,0,1,0,10.17,7.17l-6,6a2,2,0,0,0,0,2.83l6,6a2,2,0,1,0,2.83-2.83l-2.6-2.58H42a2,2,0,0,0,0-4Z" fill="#00F5A0"/>
  <!-- Нижняя стрелка (вправо, отражена и сдвинута вниз) -->
  <g transform="translate(48,24) scale(-1,1)">
    <path d="M42,13H10.82l2.6-2.58A2,2,0,1,0,10.17,7.17l-6,6a2,2,0,0,0,0,2.83l6,6a2,2,0,1,0,2.83-2.83l-2.6-2.58H42a2,2,0,0,0,0-4Z" fill="#00F5A0"/>
  </g>
</svg>