<?xml version="1.0" encoding="UTF-8"?>
<svg version="1.1" viewBox="0 0 1916 1892" width="479" height="473" xmlns="http://www.w3.org/2000/svg">
<path transform="translate(441,519)" d="m0 0h307l32 1 15 4 13 7 11 10 7 10 7 11 6 11 13 24 10 18 5 7h528l33 1 17 4 12 5 13 9 10 9 10 13 8 14 4 13 1 6 1 41 12 5 10 4 11 7 10 9 7 10 8 16 4 13v19l-6 36-6 41-9 56-7 48-3 23-3 16-4 27-10 65-5 31-2 18-3 18-2 13-4 28-2 13-5 35-7 44-2 14-8 45-6 15-8 13-12 13-10 8-13 8-14 6-9 2-25 1h-934l-13-1-15-4-15-8-13-10-9-9-8-11-6-12-3-9-2-11-1-13v-776l4-17 8-16 11-13 8-8 13-9 8-4 15-5z" fill="#262525"/>
<path transform="translate(441,519)" d="m0 0h307l32 1 15 4 13 7 11 10 7 10 7 11 6 11 13 24 10 18 5 7h528l33 1 17 4 12 5 13 9 10 9 10 13 8 14 4 13 1 6 1 41 12 5 10 4 11 7 10 9 7 10 8 16 4 13v19l-6 36-6 41-9 56-7 48-3 23-3 16-4 27-10 65-5 31-2 18-3 18-2 13-4 28-2 13-5 35-7 44-2 14-8 45-6 15-8 13-12 13-10 8-13 8-14 6-9 2-25 1h-934l-13-1-15-4-15-8-13-10-9-9-8-11-6-12-3-9-2-11-1-13v-776l4-17 8-16 11-13 8-8 13-9 8-4 15-5zm94 258-10 2-11 4-11 8-9 10-4 8-4 19-7 45-8 52-10 66-7 44-12 83-7 47-12 76-14 94-5 30v19l5 12 6 8 8 7 11 5 10 2h954l12-3 13-7 8-9 7-12 4-16 4-25 3-16 5-34 4-27 3-16 5-36 3-17 3-22 5-29 11-76 4-28 3-15 7-49 7-43 8-53 3-22 3-16 4-27v-14l-5-12-9-10-9-5-10-2z" fill="#16FBD7"/>
<path transform="translate(446,558)" d="m0 0h328l11 3 6 4 12 21 15 28 18 30 9 12 6 4 6 1 563 1 11 3 16 8 8 8 6 10 2 7v39l-2 1-924 1-16 2-16 5-14 7-16 13-9 10-7 11-5 12-2 7-7 47-5 28-5 37-3 20-8 52-8 50-6 37-4 27-2 16-3 1v-515l1-14 4-10 8-11 9-7 10-4z" fill="#266C60"/>
<path transform="translate(535,777)" d="m0 0h959l10 2 9 5 9 10 5 12v14l-5 31-3 20-3 19-7 48-7 43-7 49-3 15-5 35-7 47-4 27-6 36-3 23-3 19-5 34-3 16-5 34-4 27-3 16-3 18-4 12-9 14-8 7-13 6-9 2h-954l-10-2-14-7-8-8-7-14-1-3v-19l7-44 17-113 11-69 12-84 9-59 10-64 8-53 7-43 4-23 4-10 7-9 9-8 9-5 10-3zm529 28-4 2-11 1-5-1-10-1v2h-2l-1-2-9 2-17-1h-3-14l-3 2-5-1v-2l-5 1-2-1v2l-17-1-9 1h-7l-5-1h-2v2l-16-2-9 1-8-1-26 1-3-1h-12l-9 1h-6l-2-1-16 1h-50l-4-1h-5l-4 1h-13l-5-1-9 2-3-1-15-1-6 1h-17l-10-1-7 1h-13l-4 1-2-1-22 1h-39l-16 1h-24l-27 1-7 4-4 13-3 20-3 25-7 41-1 3-3 25-2 16-1 2-3 22-2 12-1 9-1 5-4 28-2 13-3 20-3 21-3 17-2 10-2 13-4 24-2 15-4 25-3 22-1 10-2 12-2 13-2 19-3 16-4 33-5 36-3 8-2 12 3 9 6 4h15l14-1h49l5 1 5-1 7 1 5-1 5 1h44l5-1 10 1h29l13-1 9 1h88l2 1 14-1 4 1 11-1h41l6 1h24l7-1h31l4-1 12 1h23 3 21l4 1 12-1 15 1 25-1h35l3 1 12-1 2 1h6l5-1h124l13-1 8 1h128l7-1 8 1h25l4 1 13-3 4-3 3-15 1-18 2-10 2-19 3-14 3-25 2-9v-8l2-10 3-23 2-12 3-17 2-15 3-13 2-19 2-9 2-16 6-28 3-23 2-12 2-18 3-22 3-17 1-7 1-3 1-7 3-20 2-19 2-10 4-25 2-6 2-16 3-21 1-15 3-18 3-12 2-6 2-8-1-5-5-2-9 1h-12l-9-1-31-2h-47l-2 1v-2h-11l-14 1-9-1h-3l-9 1-8-1h-8l-6 1-9-2v2l-5-1-7 1-9-1-3 1v-2l-16 1h-76l-1-1-9 1-2 1-1-2-4 1h-2v2h-2v-2l-6-1h-2-7l-5 1h-8l-5-2-3 1v2h-2l-1-2-6 1-14-2-10 1h-7l-5-1-10 1z" fill="#266C60"/>
<path transform="translate(1064,805)" d="m0 0 9 2 9-1 7 1h9l7-1 13 2 7-1v2h2v-2l4-1 6 2h10l5-1 4 1 2-1 5 1v2h2v-2h5l2-1v2l6-2h5l5 1h80l8-1v2l7-1 6 1 9-1 2 1 1-2 10 2 8-1h7l7 1 8-1h3l12 1 12-1h9v2l5-1h47l30 2 9 1h11l10-1 4 3-1 10-2 3-3 15-2 6-3 25-1 13-3 18-2 13-2 11-3 18-3 17-1 13-3 18-1 7-2 6-1 11-2 13-4 24-2 22-3 17-2 15-6 26-2 17-2 14-2 13-4 21-1 10-2 10-2 12-4 29-1 4v9l-2 8-3 25-3 15-2 21-2 10-1 16-3 14-6 4-12 2-4-1h-28l-5-1-13 1h-126l-4-1-15 1h-125l-1 1h-6l-4-1-11 1-6-1h-40l-17 1-18-1-9 1-9-1h-15-3-29l-8-1-7 1h-31l-3 1h-27l-7-1h-41l-8 1-5-1-12 1-4-1h-88l-7-1-15 1h-30l-7-1-5 1h-45l-4-1-8 1-4-1-8 1-4-1h-53l-14 1h-8l-6-4-3-10 3-14 2-5 6-44 4-31 2-12 2-17 2-13 1-9 1-6 3-21 2-16 4-21 2-15 4-26 1-7 2-10 5-31 2-14 2-13 4-28 2-15 2-8 1-9 3-20 1-9 2-9 3-23 1-11 4-20 4-24 3-25 3-20 4-13 7-4 28-1h31l16-1h40l14-1 2 1 8-1h12l4-1 10 1h20l3-1 14 1 3 1 11-2 8 1h11l2-1h6l4 1h56l9-1 4 1h7l7-1h11l4 1 26-1 7 1 11-1 13 2v-2h6l2 1h12l6-1 14 1 1-2h4l2 1 4 1h2l7-1h9 3l20 1 7-2v2h2v-2h5l5 1 11 1 5-1zm-367 37-13 1h-51l-44 1h-16l-21 1-4 3-2 15-3 40-6 36-3 23-3 19-1 10-4 27-3 17-2 18-2 7-1 14-4 20-3 24-3 17-4 25-3 16-5 41-1 3-2 18-5 35-4 23-1 9-3 11-2 14-1 5v10l2 6 6 2 6 1 22-1h34l46-1 15 1 9-1 19 1 6-1h108l8 1h12l14-1h21l15 1 15-1 26 1h94l29-1 9 1h106l3 1 28-1h41l3-1h32l88 1 47 1h28l6-4 4-8 1-19 3-23 3-21 8-52 5-34 4-23 3-17 1-2 2-16 4-21 4-27 2-13 5-34 4-24 3-25 6-36 3-24 5-33 5-23 2-5 2-14 1-2v-9l-2-1h-13l-25-1-38 1-12-1h-28l-30 1-4-1h-37l-3-1-10 1-37-1h-183l-46 1h-29l-12-1-4 1-13-1h-193l-14 1-6-1z" fill="#29443E"/>
<path transform="translate(453,493)" d="m0 0h309l2 3 30 1 13 5 19 10 12 9 9 9 6 10 8 15 5 11 8 18 6 11 6 5 8 1 129 1h271l107-1h39l16 4 14 5 12 7 16 15 6 6v2h2l8 10 8 15 4 11 1 5 1 38 9 6 16 8 10 8 7 7 8 13 6 13 5 13 2 4v46l-3 8-1 17-2 2-1 10-1 16-2 2-2 28-1 7-2 7-1 13-2 5-2 18-2 3-2 29-2 2-2 28-2 4-3 27-1 1-2 18-2 2-2 24-2 4-2 24-2 5-3 26-1 1-2 17-2 4-3 26-2 9-2 15-1 2-2 20-2 3-2 24-2 5-3 26-2 9-1 13-2 4-2 20-2 3-2 16-3 10-4 16-9 19-9 10-15 15-9 6-8 6-16 8-14 3-5 2-33 1-3 2h-158l-52-1h-457l-8-1-7 1h-24l-2-1-7 1h-35l-44 1h-141l-1-1-21-2-16-5-16-8-11-9-12-9-8-8-8-14-7-17-4-16-3-17v-788l6-22 8-16 6-8 9-10 18-18 9-6 9-4 24-7 18-2 1-1zm-12 26-16 3-14 5-11 7-10 8-9 9-10 14-6 14-3 14v776l2 18 3 12 4 10 6 9 8 10 8 8 14 10 15 7 12 3 13 1h935l24-1 11-3 12-5 16-10 13-12 9-11 8-16 4-13 7-40 8-53 4-25 3-24 3-18 3-17 3-24 2-13 5-35 7-44 6-40 4-25 2-13 5-35 8-53 6-36 5-35 6-36v-19l-6-18-8-14-8-10-11-9-14-7-14-5-1-1-1-41-3-13-5-12-8-12-11-13-13-10-8-5-14-5-13-3-33-1h-528l-7-10-11-21-13-23-8-14-7-10-9-10-11-7-9-4-12-3-38-1z" fill="#256D61"/>
<path transform="translate(459,589)" d="m0 0 26 2 12-1h62l2-1 18 1 11-1h50l15 1 5-1h106l3 2v2h2l3 9 4 11 4 9 7 14 3 5v2h2l10 15 2 4h2l4 5v3l5 2v2l5 2 2 3 3 1v2l16 8 10 3 19 3 3 1 10-1 11 1 3 1v-2h15l1 1 10-1 4 1 2-1v2l5-1h9l4-1 1 1h8l5-1v2l5-1 6 2-2 3h-20l-11 2-5-1-2 1-5-1-15-1-4 1-9-2v2l-9 1-12 1-4 1-1-1-11-1-3 1h-9l-23 3h-22l-8 1-18-1-5 1-7-1h-70l-1-1-12 1-16-1h-13l-9 1-6-1h-23l-5 1-2-1h-74l-17 2-12 3-18 6h-3v2l-7 2-10 6h-2v2l-10 6-14 7h-6l-4-9-1-6-1-28v-16l1-4v-66l2-17 2-4 7-3z" fill="#29443E"/>
<path transform="translate(691,622)" d="m0 0h43l13 1 8 10 5 14 6 11v12l-8 3-21 1h-10l-7-1-6 1-8-1h-150l-6 1-16 1-12 3-8 1-6 3h-7l-15 4-7 2-1 1h-7l-5-4-1-3v-46l3-8 4-1v-2l6-1h16l41-1 16 1h22l12-1h22l11 1 47-1h25z" fill="#262525"/>
<path transform="translate(691,622)" d="m0 0h43l13 1 8 10 5 14 6 11v12l-8 3-21 1h-10l-7-1-6 1-8-1h-102l-1-2-6-1v-2l8-1v2l12-2h126l2-2 8-1 2-4-3-10-3-4-4-10-2-4-9-2-11-1h-48l-11-1-6 1h-19l-4-1-4 1-6-1h-28l-5 1-10-1h-11l-6 1-21 1h-36l-7 1h-10l-12 1v-2l-3 2h-3l-1 3-1 21v14l2 10 1 1 11-1 18-5 14-4 20-2 9-1 6 1 9-1 23-1 4 2-1 4h-31l-6 1-16 1-12 3-8 1-6 3h-7l-15 4-7 2-1 1h-7l-5-4-1-3v-46l3-8 4-1v-2l6-1h16l41-1 16 1h22l12-1h22l11 1 47-1h25z" fill="#2A302F"/>
<path transform="translate(1492,668)" d="m0 0 3 3 5 12 3 13 1 41 12 5 10 4 11 7 10 9 7 10 8 16 4 13v19l-6 36-6 41-9 56-7 48-3 23-3 16-4 27-10 65-5 31-2 18-3 18-2 13-4 28-2 13-5 35-7 44-2 14-8 45-6 15-8 13-12 13-10 8-13 8-14 6-9 2-25 1h-934l-13-1-4-2 90 1h771l107-1 13-2 16-6 9-5h2v-2l11-8 4-2 2-4h2l2-4 6-9 5-9 5-15 4-21 8-50 12-80 16-108 8-52 10-64 11-74 8-50 9-62 1-8v-17l-3-14-8-16-7-9-7-7-13-8-15-6-7-3-1-2-1-39-3-16-5-12z" fill="#00F49F"/>
<path transform="translate(1162,613)" d="m0 0 2 1 3 1 17-1 8 1h65l11 1v2l7 1-1 2h-244l-2-2 2-1 2 1v-2l2-1h6 2l7-1 1 1 8-1 4 1 9-1h68l19-1 4 1z" fill="#29443E"/>
<path transform="translate(404,583)" d="m0 0 1 3-2 6-1 14v513l-1 2 3-1-1 16-2 9-2 1v-545l3-14z" fill="#00F49F"/>
<path transform="translate(1020,604)" d="m0 0h296v1l-73 2h-142l-81-2z" fill="#00F49F"/>
<path transform="translate(1404,843)" d="m0 0h21l19 1h9l2 1v9l-2 7-2 12-5 5-2-4 1-11 1-6v-6h-13l-14-2-31-1v-3l-3-1z" fill="#2A302F"/>
<path transform="translate(671,1479)" d="m0 0 7 1h21l6-1 13 1h83l4 2-193 1h-168v-1l151-1 43-1h31z" fill="#2A443E"/>
<path transform="translate(1375,1330)" d="m0 0 4 1v11l-4 8-6 4h-37l-28-1-3-1v-3l8-1h10v2h10l4-2h6l3 3 9-1v-2l12-1 7-2 3-5z" fill="#2A302F"/>
<path transform="translate(1018,695)" d="m0 0h4v2h20v3h2v-2l3 1 2-2 10-2 1 4 1 3-4-1v2l-4 1-5-1h-23l-7-1-16 1h-7l-5-1-2 1-8-1v-2l-3 1 1-5h4v2l4-1v2l6-2 5 1 5-1h10v2l6-2z" fill="#29443E"/>
<path transform="translate(1069,694)" d="m0 0 1 2 6-1 5 1h3l5 1v-2h2l2 2 3-1 7 2 5-1 2 1 1-2 5 3 1-2 3 1 1-3 4 1-4 1 5 2 1-2 5 2-1 3h-12-3-2l-1 2-1-2h-8v-2h-3l-1 2-1-1h-9l-2 1-12-1-4-2-1 3-7 1 1-5z" fill="#29443E"/>
<path transform="translate(1025,616)" d="m0 0 3 1v3l245 1v1h-248l-2-4z" fill="#266D61"/>
<path transform="translate(483,1324)" d="m0 0h1l-1 9 1 1v6l-1 2 3 5h7l9 1h6v5l-17 1-11-2-2-2-1-5v-10l2-10z" fill="#2B3130"/>
<path transform="translate(1173,696)" d="m0 0 4 3 1-2 3-1 5 1-1 5-1-2-5 2h-8l-4 1-5-1-6 1-4-1-6 1-6-1-5 1-3-2 1-2h3l1-2h2 13l3 1 4-1 5 1 4-1h2z" fill="#29443E"/>
<path transform="translate(573,844)" d="m0 0h16l2 2-1 2-27 1-8 1-3 4-4-2 1-5 3-2z" fill="#2B3130"/>
<path transform="translate(1264,1347)" d="m0 0 4 1 11-1h17l4 5-12 1-28-1 2-4z" fill="#2A302F"/>
<path transform="translate(633,843)" d="m0 0h4v4h-7l-5 1-19-1-1-3z" fill="#2A2F2E"/>
<path transform="translate(954,843)" d="m0 0h23l6 1-1 2h-27l-2-2z" fill="#292E2D"/>
<path transform="translate(1211,695)" d="m0 0 11 1v2l2 1-5 1-2-1v2l-6-2-2 1-1-4z" fill="#294741"/>
<path transform="translate(465,640)" d="m0 0 5 1v6l-3 7-2-1z" fill="#262525"/>
<path transform="translate(1025,616)" d="m0 0 3 1v3h15l9 1v1h-27l-2-4z" fill="#276258"/>
<path transform="translate(564,1348)" d="m0 0 7 1 11 2v1h-18z" fill="#2A302F"/>
<path transform="translate(470,642)" d="m0 0h1v17l-6-2 1-4 3-6z" fill="#2B3130"/>
<path transform="translate(929,842)" d="m0 0v3l-14 1-5-1 2-2z" fill="#2A302F"/>
<path transform="translate(946,842)" d="m0 0h2l-1 4h-10l-6-2v-1h12z" fill="#2B3130"/>
<path transform="translate(1191,696)" d="m0 0h5l3 4-6 2h-6l2-3h2z" fill="#29463F"/>
<path transform="translate(802,1348)" d="m0 0h10l-3 4h-8l-1-3z" fill="#2B3130"/>
<path transform="translate(647,843)" d="m0 0h6l-3 3-9 1v-3z" fill="#2B3130"/>
<path transform="translate(917,1348)" d="m0 0 7 1v2h2v2h-6l-4-4z" fill="#2B3130"/>
<path transform="translate(954,843)" d="m0 0h8l2 1-1 2h-8l-2-2z" fill="#2A302F"/>
<path transform="translate(1180,697)" d="m0 0h6l-1 5-1-2-5 2z" fill="#294842"/>
</svg>
