<svg viewBox="0 0 1120 928" width="52" height="52" fill="none" xmlns="http://www.w3.org/2000/svg">
  <g transform="scale(1.8) translate(-310 -180)">
	<path d="M0 0 C6.03454952 -0.47083611 9.67712087 0.88900306 14.9375 3.75 C15.60201172 4.09804687 16.26652344 4.44609375 16.95117188 4.8046875 C18.30265392 5.51254425 19.65078317 6.22683666 20.99560547 6.94726562 C22.9160537 7.9559103 24.8592935 8.89317631 26.81640625 9.828125 C31.09907559 11.95614648 35.06169643 14.51733098 39.07324219 17.11328125 C42.0296756 19.01913022 45.01254729 20.87461769 48.0078125 22.71875 C49.01457031 23.34136719 50.02132812 23.96398437 51.05859375 24.60546875 C53.10852175 25.87198477 55.16062286 27.13499 57.21484375 28.39453125 C62.75275544 31.82817868 67.96333734 35.42666774 73.05175781 39.49511719 C75.50827338 41.39260615 78.08456435 42.89980733 80.8125 44.375 C90.32857904 49.79203102 98.60332121 56.48542143 106.640625 63.8828125 C109.52823204 66.47400955 112.5549994 68.82597645 115.63671875 71.1796875 C118.37455741 73.28850207 121.06622522 75.44780118 123.75 77.625 C124.63171875 78.33914063 125.5134375 79.05328125 126.421875 79.7890625 C129 82 129 82 131.58203125 84.60546875 C133.64269503 86.64615841 135.48462412 88.17765206 137.9375 89.6875 C138.56527344 90.08324219 139.19304687 90.47898437 139.83984375 90.88671875 C156.45655579 99.45048535 182.91817953 95.61649488 201.01147461 94.36035156 C211.27287254 93.66995917 221.54731184 93.70021304 231.80249023 94.46362305 C243.33956854 95.31086322 250.60940103 94.9887509 259.63671875 87.2109375 C261.79681941 85.190083 263.87790758 83.12251276 265.9375 81 C269.63233809 77.19431676 273.6813708 74.24930023 278.0078125 71.19921875 C281.32009143 68.76473698 284.44245005 66.17302124 287.5625 63.5 C288.38947388 62.79399658 288.38947388 62.79399658 289.2331543 62.07373047 C290.31734794 61.14763834 291.40125809 60.2212142 292.48486328 59.29443359 C302.08221399 51.09508563 312.29502207 44.68155867 323.25 38.4375 C327.82144707 35.79595143 331.93624482 32.87117548 336.046875 29.56640625 C339.64352201 26.68189535 343.10029437 24.36654674 347.375 22.625 C351.01590473 20.99287029 353.65562895 19.09813756 356.78125 16.67578125 C363.84816474 11.33826994 371.09487665 7.29255798 379.3359375 4.06640625 C382.17823787 2.98237201 382.17823787 2.98237201 385.4375 1.1875 C388.24256404 -0.11240772 389.94978938 -0.50836844 393 0 C395.33073075 3.49609612 395.27413289 4.98638305 395.34375 9.125 C395.38822266 11.02572266 395.38822266 11.02572266 395.43359375 12.96484375 C395.4566441 14.30988047 395.47878443 15.65493309 395.5 17 C395.6534102 25.67218831 395.99588524 34.25562065 396.73724365 42.89790344 C398.23763474 60.69099228 398.31277027 78.41029374 398.25693893 96.25194168 C398.24990873 98.84617964 398.24719433 101.44039079 398.24563599 104.03463745 C398.2265979 128.34126675 397.84632156 152.59582747 396.62402344 176.8762207 C396.14779877 186.55930849 395.86424076 196.20801751 396.12890625 205.90234375 C396.13816635 206.78628311 396.14742645 207.67022247 396.15696716 208.58094788 C396.42145524 215.13040574 398.4369247 219.55710683 402 225 C402.40700134 225.64226028 402.81400269 226.28452057 403.2333374 226.94624329 C404.30274251 228.62355371 405.39865636 230.28101931 406.5 231.9375 C409.65695158 236.75017263 412.45434275 241.55998379 414.83203125 246.81640625 C416.26501574 249.49546422 418.08375324 251.64180804 420 254 C421.67560426 256.34148186 423.27915558 258.72863228 424.875 261.125 C425.3177124 261.78878662 425.7604248 262.45257324 426.21655273 263.13647461 C429.22181369 267.69468285 431.89760399 272.34522635 434.4375 277.1796875 C437.64706186 282.97294666 441.38073667 288.45716523 445 294 C448.36455916 299.19127688 451.32633371 304.42017469 454 310 C455.53142878 313.19047663 457.02636987 316.03755708 459.0625 318.9375 C461.20385933 322.32222927 462.34122871 325.04737226 463 329 C460.89264968 332.93820432 458.27857424 333.95030446 454.1875 335.4375 C450.00451495 337.07280286 447.11318318 338.55112138 443.828125 341.66796875 C438.96490891 345.21146594 431.92125287 348.11479834 426.09008789 349.43115234 C423.61709193 350.10421397 421.58273014 351.13833621 419.31640625 352.3359375 C418.39891602 352.81788574 417.48142578 353.29983398 416.53613281 353.79638672 C415.55483398 354.3173291 414.57353516 354.83827148 413.5625 355.375 C412.54639648 355.91012207 411.53029297 356.44524414 410.48339844 356.99658203 C408.36783075 358.11074605 406.25309484 359.22649075 404.13916016 360.34375 C401.16312426 361.91393413 398.1824839 363.47485287 395.19921875 365.03125 C384.42666036 370.6446685 384.42666036 370.6446685 373.75 376.4375 C370.75650581 378.093775 367.78104448 379.55715347 364.625 380.875 C359.51567803 383.06470942 354.94483807 386.04647737 350.24609375 388.99609375 C345.0385792 392.210841 339.63791896 395.05944017 334.23974609 397.93896484 C317.68205807 406.81635705 303.01495691 417.52073459 289 430 C287.52182493 431.29280132 286.04283361 432.58467089 284.5625 433.875 C283.95664062 434.40996094 283.35078125 434.94492187 282.7265625 435.49609375 C281.56872021 436.50462153 280.39645216 437.49680685 279.2109375 438.47265625 C274.62836148 442.25782367 270.82388969 446.459131 267 451 C263.17882174 455.53764918 259.39857681 459.74651482 254.7734375 463.48046875 C252.38509026 465.526872 250.20148215 467.75743756 248 470 C229.93127851 488.39442971 229.93127851 488.39442971 221.17578125 495.18359375 C219.10841114 496.90949519 217.57554092 498.62460806 215.9375 500.75 C211.67591714 506.01574893 205.22765419 508.80493064 198.6875 510.1875 C192.19402498 510.58034368 186.34432968 507.3918679 181 504 C179.23963592 502.18437785 177.98044918 500.37999157 176.625 498.25 C174.55798086 495.3879735 172.06406298 493.14272424 169.4375 490.8125 C164.89057334 486.76134194 160.5257424 482.58679774 156.25 478.25 C152.30828093 474.26101949 148.32131121 470.44215894 144.03515625 466.8203125 C140.38119692 463.55208784 137.01627139 459.97923345 133.61328125 456.453125 C131.19500457 453.98622673 131.19500457 453.98622673 128.66015625 452.6875 C124.49152008 450.04307882 121.44122506 446.37615263 118.125 442.75 C108.35491004 432.091751 108.35491004 432.091751 97.5625 422.5 C94.23956971 419.83440244 91.01242571 417.13067031 87.875 414.25 C84.58751453 411.33746196 81.18520505 409.28388502 77.30078125 407.2578125 C74.09129399 405.50322015 71.13218188 403.43166099 68.140625 401.33203125 C66.05382477 399.94470027 66.05382477 399.94470027 63.78515625 399.125 C59.72971925 397.48689922 55.99854887 395.32433087 52.1875 393.1875 C51.03411133 392.54844727 51.03411133 392.54844727 49.85742188 391.89648438 C45.39977519 389.40998272 41.04950497 386.80122003 36.7355957 384.07397461 C34.70949336 382.8202365 32.64500313 381.72398472 30.5 380.6875 C29.25089844 380.07455078 29.25089844 380.07455078 27.9765625 379.44921875 C26.99429688 378.97097656 26.01203125 378.49273438 25 378 C8.30424224 369.83425666 8.30424224 369.83425666 2.87109375 366.203125 C-2.65509027 362.64975406 -8.42477974 359.75823419 -14.375 357 C-15.50796509 356.47128296 -15.50796509 356.47128296 -16.66381836 355.93188477 C-23.01437923 352.97560101 -29.38922114 350.09612871 -35.84765625 347.3828125 C-36.55011475 347.08383057 -37.25257324 346.78484863 -37.97631836 346.47680664 C-39.36601841 345.88546172 -40.75860725 345.30084071 -42.15454102 344.72436523 C-46.31549318 342.94608838 -49.79707738 340.83195974 -53.41943359 338.1262207 C-55.41986583 336.70082776 -57.47820965 335.73491133 -59.75 334.8125 C-66.57028943 332.01045801 -66.57028943 332.01045801 -67.7890625 329.14453125 C-68.37723659 323.16476138 -63.64465706 317.28192432 -60.20703125 312.72265625 C-58.99310659 310.99016184 -58.09258044 309.28483934 -57.1875 307.375 C-53.46438868 299.61223753 -48.63589524 292.3666891 -43.8125 285.25 C-41.95431227 282.50552763 -40.26582591 279.74009625 -38.69140625 276.82421875 C-36.01020617 271.95521133 -33.1050968 267.25308351 -30.125 262.5625 C-29.5997876 261.73137695 -29.0745752 260.90025391 -28.53344727 260.04394531 C-25.77196028 255.69808229 -22.94825504 251.42910774 -19.9375 247.25 C-17.35563761 243.64653738 -15.70023355 240.10889774 -14 236 C-12.89620914 234.05033926 -11.76865676 232.11404625 -10.625 230.1875 C-10.01785156 229.13691406 -9.41070312 228.08632813 -8.78515625 227.00390625 C-7 224 -7 224 -5.43359375 221.77734375 C0.97415702 211.71845294 -1.54198138 197.29152924 -2.48828125 185.9296875 C-3.15307205 177.60580054 -3.37781648 169.28277945 -3.5625 160.9375 C-3.58334656 160.02144989 -3.60419312 159.10539978 -3.62567139 158.16159058 C-4.12679376 134.99905743 -4.11081915 111.83019067 -4.12293625 88.66334915 C-4.12498343 85.58740218 -4.12874049 82.51146121 -4.13284302 79.43551636 C-4.21524993 8.43049986 -4.21524993 8.43049986 0 0 Z " fill="#111817" transform="translate(375,231)"/>
	<path d="M0 0 C6.03454952 -0.47083611 9.67712087 0.88900306 14.9375 3.75 C15.60201172 4.09804687 16.26652344 4.44609375 16.95117188 4.8046875 C18.30265392 5.51254425 19.65078317 6.22683666 20.99560547 6.94726562 C22.9160537 7.9559103 24.8592935 8.89317631 26.81640625 9.828125 C31.09907559 11.95614648 35.06169643 14.51733098 39.07324219 17.11328125 C42.0296756 19.01913022 45.01254729 20.87461769 48.0078125 22.71875 C49.01457031 23.34136719 50.02132812 23.96398437 51.05859375 24.60546875 C53.10852175 25.87198477 55.16062286 27.13499 57.21484375 28.39453125 C62.75275544 31.82817868 67.96333734 35.42666774 73.05175781 39.49511719 C75.50827338 41.39260615 78.08456435 42.89980733 80.8125 44.375 C90.32857904 49.79203102 98.60332121 56.48542143 106.640625 63.8828125 C109.52823204 66.47400955 112.5549994 68.82597645 115.63671875 71.1796875 C118.37455741 73.28850207 121.06622522 75.44780118 123.75 77.625 C124.63171875 78.33914063 125.5134375 79.05328125 126.421875 79.7890625 C129 82 129 82 131.58203125 84.60546875 C133.64269503 86.64615841 135.48462412 88.17765206 137.9375 89.6875 C138.56527344 90.08324219 139.19304687 90.47898437 139.83984375 90.88671875 C156.45655579 99.45048535 182.91817953 95.61649488 201.01147461 94.36035156 C211.27287254 93.66995917 221.54731184 93.70021304 231.80249023 94.46362305 C243.33956854 95.31086322 250.60940103 94.9887509 259.63671875 87.2109375 C261.79681941 85.190083 263.87790758 83.12251276 265.9375 81 C269.63233809 77.19431676 273.6813708 74.24930023 278.0078125 71.19921875 C281.32009143 68.76473698 284.44245005 66.17302124 287.5625 63.5 C288.38947388 62.79399658 288.38947388 62.79399658 289.2331543 62.07373047 C290.31734794 61.14763834 291.40125809 60.2212142 292.48486328 59.29443359 C302.08221399 51.09508563 312.29502207 44.68155867 323.25 38.4375 C327.82144707 35.79595143 331.93624482 32.87117548 336.046875 29.56640625 C339.64352201 26.68189535 343.10029437 24.36654674 347.375 22.625 C351.01590473 20.99287029 353.65562895 19.09813756 356.78125 16.67578125 C363.84816474 11.33826994 371.09487665 7.29255798 379.3359375 4.06640625 C382.17823787 2.98237201 382.17823787 2.98237201 385.4375 1.1875 C388.24256404 -0.11240772 389.94978938 -0.50836844 393 0 C395.33073075 3.49609612 395.27413289 4.98638305 395.34375 9.125 C395.38822266 11.02572266 395.38822266 11.02572266 395.43359375 12.96484375 C395.4566441 14.30988047 395.47878443 15.65493309 395.5 17 C395.6534102 25.67218831 395.99588524 34.25562065 396.73724365 42.89790344 C398.23763474 60.69099228 398.31277027 78.41029374 398.25693893 96.25194168 C398.24990873 98.84617964 398.24719433 101.44039079 398.24563599 104.03463745 C398.2265979 128.34126675 397.84632156 152.59582747 396.62402344 176.8762207 C396.14779877 186.55930849 395.86424076 196.20801751 396.12890625 205.90234375 C396.13816635 206.78628311 396.14742645 207.67022247 396.15696716 208.58094788 C396.42145524 215.13040574 398.4369247 219.55710683 402 225 C402.40700134 225.64226028 402.81400269 226.28452057 403.2333374 226.94624329 C404.30274251 228.62355371 405.39865636 230.28101931 406.5 231.9375 C409.65695158 236.75017263 412.45434275 241.55998379 414.83203125 246.81640625 C416.26501574 249.49546422 418.08375324 251.64180804 420 254 C421.67560426 256.34148186 423.27915558 258.72863228 424.875 261.125 C425.3177124 261.78878662 425.7604248 262.45257324 426.21655273 263.13647461 C429.22181369 267.69468285 431.89760399 272.34522635 434.4375 277.1796875 C437.64706186 282.97294666 441.38073667 288.45716523 445 294 C448.36455916 299.19127688 451.32633371 304.42017469 454 310 C455.53142878 313.19047663 457.02636987 316.03755708 459.0625 318.9375 C461.20385933 322.32222927 462.34122871 325.04737226 463 329 C460.89264968 332.93820432 458.27857424 333.95030446 454.1875 335.4375 C450.00451495 337.07280286 447.11318318 338.55112138 443.828125 341.66796875 C438.96490891 345.21146594 431.92125287 348.11479834 426.09008789 349.43115234 C423.61709193 350.10421397 421.58273014 351.13833621 419.31640625 352.3359375 C418.39891602 352.81788574 417.48142578 353.29983398 416.53613281 353.79638672 C415.55483398 354.3173291 414.57353516 354.83827148 413.5625 355.375 C412.54639648 355.91012207 411.53029297 356.44524414 410.48339844 356.99658203 C408.36783075 358.11074605 406.25309484 359.22649075 404.13916016 360.34375 C401.16312426 361.91393413 398.1824839 363.47485287 395.19921875 365.03125 C384.42666036 370.6446685 384.42666036 370.6446685 373.75 376.4375 C370.75650581 378.093775 367.78104448 379.55715347 364.625 380.875 C359.51567803 383.06470942 354.94483807 386.04647737 350.24609375 388.99609375 C345.0385792 392.210841 339.63791896 395.05944017 334.23974609 397.93896484 C317.68205807 406.81635705 303.01495691 417.52073459 289 430 C287.52182493 431.29280132 286.04283361 432.58467089 284.5625 433.875 C283.95664062 434.40996094 283.35078125 434.94492187 282.7265625 435.49609375 C281.56872021 436.50462153 280.39645216 437.49680685 279.2109375 438.47265625 C274.62836148 442.25782367 270.82388969 446.459131 267 451 C263.17882174 455.53764918 259.39857681 459.74651482 254.7734375 463.48046875 C252.38509026 465.526872 250.20148215 467.75743756 248 470 C229.93127851 488.39442971 229.93127851 488.39442971 221.17578125 495.18359375 C219.10841114 496.90949519 217.57554092 498.62460806 215.9375 500.75 C211.67591714 506.01574893 205.22765419 508.80493064 198.6875 510.1875 C192.19402498 510.58034368 186.34432968 507.3918679 181 504 C179.23963592 502.18437785 177.98044918 500.37999157 176.625 498.25 C174.55798086 495.3879735 172.06406298 493.14272424 169.4375 490.8125 C164.89057334 486.76134194 160.5257424 482.58679774 156.25 478.25 C152.30828093 474.26101949 148.32131121 470.44215894 144.03515625 466.8203125 C140.38119692 463.55208784 137.01627139 459.97923345 133.61328125 456.453125 C131.19500457 453.98622673 131.19500457 453.98622673 128.66015625 452.6875 C124.49152008 450.04307882 121.44122506 446.37615263 118.125 442.75 C108.35491004 432.091751 108.35491004 432.091751 97.5625 422.5 C94.23956971 419.83440244 91.01242571 417.13067031 87.875 414.25 C84.58751453 411.33746196 81.18520505 409.28388502 77.30078125 407.2578125 C74.09129399 405.50322015 71.13218188 403.43166099 68.140625 401.33203125 C66.05382477 399.94470027 66.05382477 399.94470027 63.78515625 399.125 C59.72971925 397.48689922 55.99854887 395.32433087 52.1875 393.1875 C51.03411133 392.54844727 51.03411133 392.54844727 49.85742188 391.89648438 C45.39977519 389.40998272 41.04950497 386.80122003 36.7355957 384.07397461 C34.70949336 382.8202365 32.64500313 381.72398472 30.5 380.6875 C29.25089844 380.07455078 29.25089844 380.07455078 27.9765625 379.44921875 C26.99429688 378.97097656 26.01203125 378.49273438 25 378 C8.30424224 369.83425666 8.30424224 369.83425666 2.87109375 366.203125 C-2.65509027 362.64975406 -8.42477974 359.75823419 -14.375 357 C-15.50796509 356.47128296 -15.50796509 356.47128296 -16.66381836 355.93188477 C-23.01437923 352.97560101 -29.38922114 350.09612871 -35.84765625 347.3828125 C-36.55011475 347.08383057 -37.25257324 346.78484863 -37.97631836 346.47680664 C-39.36601841 345.88546172 -40.75860725 345.30084071 -42.15454102 344.72436523 C-46.31549318 342.94608838 -49.79707738 340.83195974 -53.41943359 338.1262207 C-55.41986583 336.70082776 -57.47820965 335.73491133 -59.75 334.8125 C-66.57028943 332.01045801 -66.57028943 332.01045801 -67.7890625 329.14453125 C-68.37723659 323.16476138 -63.64465706 317.28192432 -60.20703125 312.72265625 C-58.99310659 310.99016184 -58.09258044 309.28483934 -57.1875 307.375 C-53.46438868 299.61223753 -48.63589524 292.3666891 -43.8125 285.25 C-41.95431227 282.50552763 -40.26582591 279.74009625 -38.69140625 276.82421875 C-36.01020617 271.95521133 -33.1050968 267.25308351 -30.125 262.5625 C-29.5997876 261.73137695 -29.0745752 260.90025391 -28.53344727 260.04394531 C-25.77196028 255.69808229 -22.94825504 251.42910774 -19.9375 247.25 C-17.35563761 243.64653738 -15.70023355 240.10889774 -14 236 C-12.89620914 234.05033926 -11.76865676 232.11404625 -10.625 230.1875 C-10.01785156 229.13691406 -9.41070312 228.08632813 -8.78515625 227.00390625 C-7 224 -7 224 -5.43359375 221.77734375 C0.97415702 211.71845294 -1.54198138 197.29152924 -2.48828125 185.9296875 C-3.15307205 177.60580054 -3.37781648 169.28277945 -3.5625 160.9375 C-3.58334656 160.02144989 -3.60419312 159.10539978 -3.62567139 158.16159058 C-4.12679376 134.99905743 -4.11081915 111.83019067 -4.12293625 88.66334915 C-4.12498343 85.58740218 -4.12874049 82.51146121 -4.13284302 79.43551636 C-4.21524993 8.43049986 -4.21524993 8.43049986 0 0 Z M28.35920715 54.16212463 C26.8134478 57.38950053 26.62554986 59.46668327 26.62768555 63.03100586 C26.62153732 64.24322311 26.6153891 65.45544037 26.60905457 66.70439148 C26.61781172 68.04121202 26.62704953 69.37802949 26.63671875 70.71484375 C26.63656017 72.13169914 26.63529505 73.54855477 26.63301086 74.96540833 C26.63145075 78.81801985 26.65044706 82.67028286 26.67419434 86.52281189 C26.6875047 88.93835208 26.69496111 91.35383932 26.70043945 93.76940918 C26.770694 123.4633456 27.42813323 153.13954001 28.2878418 182.82006836 C28.31102635 183.62295949 28.33421091 184.42585062 28.35809803 185.25307178 C28.46683813 189.0019906 28.57812862 192.75079606 28.69514465 196.49946594 C29.60944309 226.33744746 20.7457464 240.55064584 3.83642578 264.40478516 C0.17832624 269.57436746 -3.44640111 274.76739591 -7.07421875 279.95825195 C-7.63882813 280.76609131 -8.2034375 281.57393066 -8.78515625 282.40625 C-9.60137451 283.57414062 -9.60137451 283.57414062 -10.43408203 284.765625 C-11.88623258 286.83766769 -13.34595872 288.90410134 -14.80859375 290.96875 C-15.62244676 292.12496416 -16.43625279 293.28121138 -17.25 294.4375 C-17.93578125 295.40558594 -18.6215625 296.37367188 -19.328125 297.37109375 C-22.1209695 301.76264597 -23.26395336 305.1017489 -23.125 310.3125 C-23.09792969 311.63701172 -23.09792969 311.63701172 -23.0703125 312.98828125 C-23.04710937 313.65214844 -23.02390625 314.31601562 -23 315 C-18.18722523 317.80797079 -13.3188864 320.3706145 -8.3125 322.8125 C-2.38480523 325.73536309 3.32499538 328.88858419 9 332.28125 C12.31170544 334.17858124 15.69853197 335.88588437 19.125 337.5625 C24.1052548 340.0116264 28.86755412 342.63280978 33.58984375 345.54296875 C36.10651085 347.06438987 38.66250493 348.47767733 41.25 349.875 C45.86363393 352.36764389 50.42419174 354.9413447 54.97265625 357.55078125 C60.72039844 360.84566531 66.48351211 364.11304791 72.25 367.375 C73.24040283 367.93630615 74.23080566 368.4976123 75.2512207 369.07592773 C79.78863847 371.64261906 84.33184521 374.19309262 88.91796875 376.671875 C110.12085547 388.13881139 126.59022968 401.89063053 142.41186523 420.20239258 C144.66806584 422.75618275 147.06159379 425.11896806 149.5 427.5 C153.30869334 431.25149794 156.91966876 435.10589769 160.390625 439.171875 C162.56371785 441.64033969 164.90472369 443.91535363 167.25 446.21875 C169.70634849 448.71896185 171.96309368 451.37680516 174.25 454.03125 C176.47746325 456.53714615 178.85230939 458.86535014 181.24609375 461.2109375 C183.11093223 463.11315582 184.83505395 465.09762375 186.5625 467.125 C189.46267816 470.49760537 192.49647421 473.26554084 196 476 C201.59773181 474.56303436 204.6414237 470.49699892 208.375 466.375 C209.80460134 464.82544134 211.23429092 463.27596409 212.6640625 461.7265625 C213.38625977 460.93797852 214.10845703 460.14939453 214.85253906 459.33691406 C218.12154337 455.77951193 221.43773109 452.26705395 224.75 448.75 C230.71630551 442.38961268 236.64298202 435.99361582 242.54833984 429.57666016 C244.02710832 427.97055743 245.5074064 426.36587944 246.98828125 424.76171875 C247.48521484 424.22337402 247.98214844 423.6850293 248.49414062 423.13037109 C249.49365272 422.04821452 250.49364862 420.96650458 251.49414062 419.88525391 C254.04486187 417.12697397 256.58424314 414.35950499 259.10546875 411.57421875 C267.88725547 401.89692544 276.47060604 393.8869529 287.85107422 387.25341797 C290.31471091 385.81643652 292.76836376 384.36303762 295.22265625 382.91015625 C306.98471233 375.97578003 318.86472292 369.28327389 330.82470703 362.69726562 C339.8482656 357.70136196 348.71114494 352.4668327 357.51733398 347.09790039 C369.22369641 339.97396598 381.35295718 333.71400052 393.53515625 327.45629883 C406.04842056 321.82134302 406.04842056 321.82134302 417 314 C418.53637135 303.62949337 411.97120617 295.29656575 406.24145508 287.21240234 C401.67325142 280.66535695 397.28228589 273.99675894 392.85791016 267.35205078 C391.13745889 264.76870765 389.41456277 262.18700795 387.69140625 259.60546875 C384.94780853 255.49239265 382.21541764 251.37204663 379.48937988 247.24731445 C378.10547625 245.15915235 376.71132578 243.07820062 375.31542969 240.99804688 C374.5196059 239.79595431 373.7243184 238.59350645 372.9296875 237.390625 C372.25921387 236.38547852 371.58874023 235.38033203 370.89794922 234.34472656 C366.30009301 226.24199566 364.39918321 219.65541234 364.79296875 210.34375 C364.81813568 209.34155426 364.84330261 208.33935852 364.86923218 207.30679321 C364.95581627 204.03697949 365.07187093 200.76890363 365.1875 197.5 C365.25272778 195.18479287 365.31576665 192.86952312 365.37670898 190.55419922 C365.533331 184.75699366 365.71167706 178.9607297 365.89855957 173.16442871 C366.14472507 165.48530941 366.36352332 157.80548022 366.5625 150.125 C366.58328613 149.33340485 366.60407227 148.54180969 366.62548828 147.72622681 C367.0831836 129.67496687 367.14344378 111.61978152 367.18122482 93.56368256 C367.18747578 91.19667151 367.19737733 88.82970134 367.20828247 86.46270752 C367.2249255 82.71494645 367.23109292 78.96730729 367.22925949 75.21951103 C367.23005852 73.82263019 367.23420098 72.42574681 367.24187088 71.0288868 C367.25168165 69.09765189 367.24761423 67.16636154 367.24291992 65.23510742 C367.24505745 63.60311653 367.24505745 63.60311653 367.24723816 61.93815613 C366.98941262 58.87418058 366.40670239 56.72678031 365 54 C362.50223305 52.1082125 362.50223305 52.1082125 359 52 C352.97766875 54.03429919 348.10104659 57.61577506 343.09716797 61.42529297 C340.46731235 63.39998083 337.7704448 65.26501513 335.06469727 67.13354492 C314.18917633 81.58127155 291.90463593 98.56454066 277.55078125 119.79296875 C274.84425243 123.64482967 272.59319648 125.7295414 268 127 C261.2555667 127.38857224 254.50679995 126.80102257 247.78390503 126.29804993 C230.49342086 125.00830515 213.29613251 124.71944796 195.96392822 124.80438232 C193.15634058 124.81529275 190.3488001 124.81480612 187.54119492 124.81436729 C173.49477575 124.81494039 159.47667453 124.95087218 145.44970703 125.76342773 C140.63550024 126.03982898 135.82079114 126.15600747 131 126.25 C130.26758087 126.27168747 129.53516174 126.29337494 128.7805481 126.3157196 C124.29377406 126.3423125 121.50927056 125.8353449 118 123 C115.9296875 120.50390625 115.9296875 120.50390625 113.875 117.5625 C103.13775073 102.69553948 89.53531152 90.1005196 75 79 C74.12472656 78.3296875 73.24945313 77.659375 72.34765625 76.96875 C69.24884496 74.62232499 66.12911749 72.30570947 63 70 C62.29182129 69.47647949 61.58364258 68.95295898 60.85400391 68.41357422 C58.51152685 66.68589186 56.16285241 64.96694989 53.8125 63.25 C52.70841797 62.43559448 52.70841797 62.43559448 51.58203125 61.60473633 C42.77575765 55.05269017 42.77575765 55.05269017 32.625 51.375 C29.83180141 51.746527 29.83180141 51.746527 28.35920715 54.16212463 Z " fill="#00F49F" transform="translate(375,231)"/>
	<path d="M0 0 C5.60263887 0.51335396 9.63844319 2.64867352 14.4375 5.375 C15.22374756 5.81690674 16.00999512 6.25881348 16.82006836 6.71411133 C24.08321759 10.88634069 30.79734815 15.6530234 37.41357422 20.77636719 C38.84674927 21.88179553 40.29927897 22.96201932 41.75390625 24.0390625 C52.21459573 31.86303783 56.40757628 40.78111764 58.6875 53.50390625 C59.20551115 57.6415203 59.54230388 61.85297032 59 66 C58.34 66.66 57.68 67.32 57 68 C36.69023849 67.62389331 16.26676384 49.77851216 1 38 C0.35804688 37.5153125 -0.28390625 37.030625 -0.9453125 36.53125 C-4.91144025 33.42212473 -8.40033913 30.12680311 -9.3828125 25.00390625 C-9.88722868 15.57132364 -5.75786386 7.19732982 0 0 Z " fill="#00F49F" transform="translate(456,488)"/>
	<path d="M0 0 C5.69170432 2.64526346 7.80145084 11.23443152 9.78515625 16.6328125 C11.42243047 21.91997866 11.78505099 25.56013142 9.4609375 30.76171875 C-1.81671835 45.3516931 -30.52017419 64.2604051 -49.1015625 68.4765625 C-51.6015625 68.76171875 -51.6015625 68.76171875 -55.2265625 68.82421875 C-58.44007816 64.00394526 -57.17001447 59.37075483 -56.2265625 53.82421875 C-51.71318854 35.45686439 -44.0309571 27.07797504 -28.1953125 16.79296875 C-25.29617391 14.8703821 -22.51290974 12.84347243 -19.7265625 10.76171875 C-4.52612304 -0.3573255 -4.52612304 -0.3573255 0 0 Z " fill="#00F49F" transform="translate(686.2265625,487.17578125)"/>
	<path d="M0 0 C0.66 0.33 1.32 0.66 2 1 C-1.52700285 4.6261998 -5.09967169 8.13924755 -8.9375 11.4375 C-15.40974809 17.04761465 -21.09869254 22.92903947 -26.2734375 29.7578125 C-33.94727518 39.72338451 -33.94727518 39.72338451 -39 43 C-41.25 42.6875 -41.25 42.6875 -43 42 C-41.7315625 41.505 -41.7315625 41.505 -40.4375 41 C-35.41340468 38.07688999 -32.1254779 33.96988602 -28.76171875 29.26977539 C-24.66236516 23.58869807 -19.98647798 18.72080712 -15 13.8125 C-14.21882812 13.03197266 -13.43765625 12.25144531 -12.6328125 11.44726562 C-8.57129252 7.41651474 -4.46939965 3.57408722 0 0 Z " fill="#145148" transform="translate(686,316)"/>
	<path d="M0 0 C0.33 0 0.66 0 1 0 C2.16107586 4.1271856 2.84261003 7.49230312 0.68359375 11.35546875 C-1.13940186 13.64307231 -3.04981072 15.82037668 -5 18 C-5.99909685 19.33952985 -6.98085997 20.69232681 -7.9375 22.0625 C-8.9584375 23.5165625 -8.9584375 23.5165625 -10 25 C-10.33 24.34 -10.66 23.68 -11 23 C-9.24969947 19.89426066 -7.37023891 16.92179598 -5.42382812 13.9375 C-2.53471706 9.34809869 -1.07302485 5.32362604 0 0 Z " fill="#115046" transform="translate(404,452)"/>
	<path d="M0 0 C0.33 0.66 0.66 1.32 1 2 C-3.03576801 8.25322296 -7.35437938 14.186102 -12 20 C-12 16.62776134 -11.50618577 15.91983172 -9.62890625 13.2421875 C-9.13712891 12.53449219 -8.64535156 11.82679688 -8.13867188 11.09765625 C-7.61853516 10.36417969 -7.09839844 9.63070313 -6.5625 8.875 C-6.04623047 8.13378906 -5.52996094 7.39257812 -4.99804688 6.62890625 C-1.20592705 1.20592705 -1.20592705 1.20592705 0 0 Z " fill="#12554B" transform="translate(385,487)"/>
	<path d="M0 0 C1.32 0.66 2.64 1.32 4 2 C1.71296692 3.19725883 -0.57884862 4.38297018 -2.875 5.5625 C-3.52597656 5.90474609 -4.17695312 6.24699219 -4.84765625 6.59960938 C-6.53529857 7.46082891 -8.26579593 8.23686703 -10 9 C-10.66 8.67 -11.32 8.34 -12 8 C-10.54462432 7.16151196 -9.08559627 6.32936066 -7.625 5.5 C-6.40683594 4.80390625 -6.40683594 4.80390625 -5.1640625 4.09375 C-3 3 -3 3 -1 3 C-0.67 2.01 -0.34 1.02 0 0 Z " fill="#155649" transform="translate(777,550)"/>
	<path d="M0 0 C6.26480445 1.74732641 10.88233868 3.97120279 16 8 C12.11908033 8 9.60326704 6.34682267 6.3125 4.5 C5.70599609 4.16613281 5.09949219 3.83226562 4.47460938 3.48828125 C2.97996769 2.664463 1.48956329 1.83296549 0 1 C0 0.67 0 0.34 0 0 Z " fill="#11574B" transform="translate(436,591)"/>
	<path d="M0 0 C0.33 0.99 0.66 1.98 1 3 C-0.28062485 4.7074998 -1.62631655 6.36643049 -3 8 C-4.41657383 10.29418186 -5.70165595 12.63515906 -7 15 C-7.33 14.34 -7.66 13.68 -8 13 C-7.109375 10.9765625 -7.109375 10.9765625 -5.75 8.625 C-5.31171875 7.85414063 -4.8734375 7.08328125 -4.421875 6.2890625 C-3.05615515 4.09040362 -1.58632356 2.043558 0 0 Z " fill="#12554B" transform="translate(361,521)"/>
	<path d="M0 0 C0.66 0.66 1.32 1.32 2 2 C-0.31 4.64 -2.62 7.28 -5 10 C-5 6.60406522 -4.47834052 5.93380119 -2.5 3.3125 C-2.0359375 2.68988281 -1.571875 2.06726563 -1.09375 1.42578125 C-0.7328125 0.95527344 -0.371875 0.48476563 0 0 Z " fill="#13544A" transform="translate(392,477)"/>
	<path d="M0 0 C0.66 0.33 1.32 0.66 2 1 C0.74057614 2.19959375 -0.53295286 3.38439443 -1.8125 4.5625 C-2.87404297 5.55443359 -2.87404297 5.55443359 -3.95703125 6.56640625 C-4.63121094 7.03949219 -5.30539062 7.51257813 -6 8 C-6.99 7.67 -7.98 7.34 -9 7 C-6.03 4.69 -3.06 2.38 0 0 Z " fill="#165A50" transform="translate(714,295)"/>
  </g>
</svg>